<svg width="240" height="250" viewBox="0 0 240.2 249.1" xmlns="http://www.w3.org/2000/svg" xmlns:xlink="http://www.w3.org/1999/xlink"><defs><path id="prefix__c" d="M12 160c0 66.274 53.726 120 120 120s120-53.726 120-120h12V0H0v160h12z"/><path id="prefix__e" d="M124 144.611V163h4c39.765 0 72 32.235 72 72v9H0v-9c0-39.765 32.235-72 72-72h4v-18.389c-17.237-8.189-29.628-24.924-31.695-44.73C38.48 99.058 34 94.052 34 88V74c0-5.946 4.325-10.882 10-11.834V56c0-30.928 25.072-56 56-56s56 25.072 56 56v6.166c5.675.952 10 5.888 10 11.834v14c0 6.052-4.48 11.058-10.305 11.881-2.067 19.806-14.458 36.541-31.695 44.73z"/><circle id="prefix__a" cx="120" cy="120" r="120"/></defs><g transform="translate(-11.9 -31)" fill="none" fill-rule="evenodd"><g transform="translate(12 40)"><mask id="prefix__b" fill="#fff"><use xlink:href="#prefix__a"/></mask><use fill="#E6E6E6" xlink:href="#prefix__a"/><g mask="url(#prefix__b)" fill="#60C060"><path d="M0 0h240v240H0z"/></g></g><mask id="prefix__d" fill="#fff"><use xlink:href="#prefix__c"/></mask><g mask="url(#prefix__d)"><g transform="translate(32 36)"><mask id="prefix__f" fill="#fff"><use xlink:href="#prefix__e"/></mask><use fill="#D0C6AC" xlink:href="#prefix__e"/><g mask="url(#prefix__f)" fill="#F0C090"><path d="M0 0h264v280H0z"/></g><path d="M156 79v23c0 30.928-25.072 56-56 56s-56-25.072-56-56V79v15c0 30.928 25.072 56 56 56s56-25.072 56-56V79z" fill-opacity=".1" fill="#000" mask="url(#prefix__f)"/></g><g transform="translate(0 170)"><defs><path id="prefix__g" d="M108 13.07c-17.919 2.006-31.72 7.482-31.996 21.575C50.146 45.568 32 71.165 32 100.999V110h200v-9c0-29.835-18.146-55.432-44.004-66.355-.276-14.093-14.077-19.57-31.996-21.574V32c0 13.255-10.745 24-24 24s-24-10.745-24-24V13.07z"/></defs><mask id="prefix__h" fill="#fff"><use xlink:href="#prefix__g"/></mask><use fill="#B7C1DB" xlink:href="#prefix__g"/><g mask="url(#prefix__h)" fill="#424242"><path d="M0 0h264v110H0z"/></g><path d="M102 61.74V110h-7V58.15a64.54 64.54 0 007 3.59zm67-3.59V98.5a3.5 3.5 0 11-7 0V61.74a64.54 64.54 0 007-3.59z" fill="#F4F4F4" mask="url(#prefix__h)"/><path d="M90.96 12.724C75.91 15.571 65.5 21.243 65.5 32.308 65.5 52.02 98.538 68 132 68s66.5-15.98 66.5-35.692c0-11.065-10.41-16.737-25.46-19.584 9.085 3.35 14.96 8.982 14.96 18.353C188 51.469 160.179 68 132 68S76 51.469 76 31.077c0-9.37 5.875-15.003 14.96-18.353z" fill-opacity=".16" fill="#000" mask="url(#prefix__h)"/></g><g fill="#000"><path d="M118 150c0 5.372 6.158 9 14 9s14-3.628 14-9c0-1.105-.95-2-2-2-1.293 0-1.87.905-2 2-1.242 2.938-4.317 4.716-10 5-5.683-.284-8.758-2.062-10-5-.13-1.095-.707-2-2-2-1.05 0-2 .895-2 2z" fill-opacity=".6" fill-rule="nonzero"/><path d="M120 130c0 4.418 5.373 8 12 8s12-3.582 12-8" fill-opacity=".16"/><g transform="translate(76 90)" fill-opacity=".6"><circle cx="30" cy="22" r="6"/><circle cx="82" cy="22" r="6"/></g><path d="M98.766 89.578l.911-.402c5.242-2.081 13.188-1.209 18.046 1.123.567.272.18 1.153-.402 1.108-14.919-1.151-24.963 8.146-28.375 14.44-.101.187-.407.208-.482.034-2.308-5.319 4.45-13.985 10.302-16.303zm66.468 0l-.911-.402c-5.242-2.081-13.188-1.209-18.046 1.123-.567.272-.18 1.153.402 1.108 14.919-1.151 24.963 8.146 28.375 14.44.101.187.407.208.482.034 2.308-5.319-4.45-13.985-10.302-16.303z" fill-opacity=".6"/></g><defs><path id="prefix__i" d="M0 0h264v280H0z"/><path id="prefix__k" d="M167.309 35.006c-20.188-11.7-40.18-9.784-55.272-5.976-15.092 3.808-24.02 14.621-31.68 30.618-3.761 7.855-5.991 17.143-6.334 25.833-.135 3.412.325 6.934 1.245 10.22.337 1.205 2.155 5.386 2.654 2.008.167-1.125-.442-2.676-.5-3.871-.078-1.569.005-3.157.112-4.723.2-2.928.722-5.8 1.65-8.59 1.328-3.988 3.017-8.312 5.603-11.677 6.401-8.327 17.482-8.802 26.28-13.384-.764 1.405-3.707 3.68-2.688 5.263.705 1.094 3.37.762 4.643.727 3.349-.092 6.713-.674 10.02-1.147 5.214-.745 10.099-2.255 15.005-4.089 4.016-1.502 8.603-2.892 11.622-6.078 4.87 5.048 11.14 9.795 17.401 13.003 5.618 2.88 14.679 4.318 18.113 10.158 4.065 6.914 2.195 15.406 3.436 22.9.472 2.85 1.545 2.786 2.132.237.997-4.33 1.468-8.828 1.151-13.279-.718-10.048-4.405-36.453-24.593-48.153z"/></defs><mask id="prefix__j" fill="#fff"><use xlink:href="#prefix__i"/></mask><g mask="url(#prefix__j)"><g transform="translate(-1 5)"><mask id="prefix__l" fill="#fff"><use xlink:href="#prefix__k"/></mask><use fill="#28354B" xlink:href="#prefix__k"/><g mask="url(#prefix__l)" fill="#4A312C"><path d="M0 0h264v280H0z"/></g></g></g></g></g></svg>